<?xml version="1.0" encoding="UTF-8" standalone="no"?>
<!-- Generator: Adobe Illustrator 22.0.1, SVG Export Plug-In . SVG Version: 6.00 Build 0)  -->

<svg
   xmlns:dc="http://purl.org/dc/elements/1.1/"
   xmlns:cc="http://creativecommons.org/ns#"
   xmlns:rdf="http://www.w3.org/1999/02/22-rdf-syntax-ns#"
   xmlns:svg="http://www.w3.org/2000/svg"
   xmlns="http://www.w3.org/2000/svg"
   xmlns:sodipodi="http://sodipodi.sourceforge.net/DTD/sodipodi-0.dtd"
   xmlns:inkscape="http://www.inkscape.org/namespaces/inkscape"
   version="1.1"
   id="Ebene_2"
   x="0px"
   y="0px"
   viewBox="0 0 714 423.99998"
   xml:space="preserve"
   sodipodi:docname="WaterDataLogo1.svg"
   width="714"
   height="424"
   inkscape:version="0.92.3 (2405546, 2018-03-11)"><metadata
   id="metadata3869"><rdf:RDF><cc:Work
       rdf:about=""><dc:format>image/svg+xml</dc:format><dc:type
         rdf:resource="http://purl.org/dc/dcmitype/StillImage" /><dc:title></dc:title></cc:Work></rdf:RDF></metadata><defs
   id="defs3867" /><sodipodi:namedview
   pagecolor="#ffffff"
   bordercolor="#666666"
   borderopacity="1"
   objecttolerance="10"
   gridtolerance="10"
   guidetolerance="10"
   inkscape:pageopacity="0"
   inkscape:pageshadow="2"
   inkscape:window-width="944"
   inkscape:window-height="974"
   id="namedview3865"
   showgrid="false"
   inkscape:zoom="0.90921763"
   inkscape:cx="414.26219"
   inkscape:cy="134.62495"
   inkscape:window-x="4"
   inkscape:window-y="0"
   inkscape:window-maximized="0"
   inkscape:current-layer="Ebene_2" />
<style
   type="text/css"
   id="style3792">
	.st0{fill:none;stroke:#267B9F;stroke-linecap:round;stroke-miterlimit:10;}
</style>
<ellipse
   class="st0"
   cx="357.19778"
   cy="105.80196"
   id="circle3794"
   style="fill:none;stroke:#267b9f;stroke-width:2.2770915;stroke-linecap:round;stroke-miterlimit:10"
   rx="75.158279"
   ry="74.829544" />
<line
   class="st0"
   x1="291.12906"
   y1="142.30107"
   x2="422.3605"
   y2="142.30107"
   id="line3796"
   style="fill:none;stroke:#267b9f;stroke-width:2.2770915;stroke-linecap:round;stroke-miterlimit:10" />
<polyline
   class="st0"
   points="67.95,27.707 53.052,18.075 36.38,27.707 20.378,18.075 4.808,27.707 "
   id="polyline3798"
   style="fill:none;stroke:#267b9f;stroke-linecap:round;stroke-miterlimit:10"
   transform="matrix(2.282088,0,0,2.2721062,274.17541,21.488679)" />
<g
   id="g3808"
   transform="matrix(2.282088,0,0,2.2721062,274.17541,21.488679)">
	<line
   class="st0"
   x1="25.412001"
   y1="52.470001"
   x2="25.412001"
   y2="29.973"
   id="line3800"
   style="fill:none;stroke:#267b9f;stroke-linecap:round;stroke-miterlimit:10" />
	<polyline
   class="st0"
   points="28.879,32.693 25.412,29.676 21.863,32.516  "
   id="polyline3802"
   style="fill:none;stroke:#267b9f;stroke-linecap:round;stroke-miterlimit:10" />
	<polyline
   class="st0"
   points="28.879,38.693 25.412,35.676 21.863,38.516  "
   id="polyline3804"
   style="fill:none;stroke:#267b9f;stroke-linecap:round;stroke-miterlimit:10" />
	<polyline
   class="st0"
   points="28.879,43.693 25.412,40.676 21.863,43.516  "
   id="polyline3806"
   style="fill:none;stroke:#267b9f;stroke-linecap:round;stroke-miterlimit:10" />
</g>
<g
   id="g3818"
   transform="matrix(2.282088,0,0,2.2721062,274.17541,21.488679)">
	<line
   class="st0"
   x1="12.412"
   y1="52.470001"
   x2="12.412"
   y2="29.973"
   id="line3810"
   style="fill:none;stroke:#267b9f;stroke-linecap:round;stroke-miterlimit:10" />
	<polyline
   class="st0"
   points="15.879,32.693 12.412,29.676 8.863,32.516  "
   id="polyline3812"
   style="fill:none;stroke:#267b9f;stroke-linecap:round;stroke-miterlimit:10" />
	<polyline
   class="st0"
   points="15.879,38.693 12.412,35.676 8.863,38.516  "
   id="polyline3814"
   style="fill:none;stroke:#267b9f;stroke-linecap:round;stroke-miterlimit:10" />
	<polyline
   class="st0"
   points="15.879,43.693 12.412,40.676 8.863,43.516  "
   id="polyline3816"
   style="fill:none;stroke:#267b9f;stroke-linecap:round;stroke-miterlimit:10" />
</g>
<g
   id="g3828"
   transform="matrix(2.282088,0,0,2.2721062,274.17541,21.488679)">
	<line
   class="st0"
   x1="37.411999"
   y1="52.470001"
   x2="37.411999"
   y2="29.973"
   id="line3820"
   style="fill:none;stroke:#267b9f;stroke-linecap:round;stroke-miterlimit:10" />
	<polyline
   class="st0"
   points="40.879,32.693 37.412,29.676 33.863,32.516  "
   id="polyline3822"
   style="fill:none;stroke:#267b9f;stroke-linecap:round;stroke-miterlimit:10" />
	<polyline
   class="st0"
   points="40.879,38.693 37.412,35.676 33.863,38.516  "
   id="polyline3824"
   style="fill:none;stroke:#267b9f;stroke-linecap:round;stroke-miterlimit:10" />
	<polyline
   class="st0"
   points="40.879,43.693 37.412,40.676 33.863,43.516  "
   id="polyline3826"
   style="fill:none;stroke:#267b9f;stroke-linecap:round;stroke-miterlimit:10" />
</g>
<g
   id="g3838"
   transform="matrix(2.282088,0,0,2.2721062,274.17541,21.488679)">
	<line
   class="st0"
   x1="60.411999"
   y1="52.470001"
   x2="60.411999"
   y2="29.973"
   id="line3830"
   style="fill:none;stroke:#267b9f;stroke-linecap:round;stroke-miterlimit:10" />
	<polyline
   class="st0"
   points="63.879,32.693 60.412,29.676 56.863,32.516  "
   id="polyline3832"
   style="fill:none;stroke:#267b9f;stroke-linecap:round;stroke-miterlimit:10" />
	<polyline
   class="st0"
   points="63.879,38.693 60.412,35.676 56.863,38.516  "
   id="polyline3834"
   style="fill:none;stroke:#267b9f;stroke-linecap:round;stroke-miterlimit:10" />
	<polyline
   class="st0"
   points="63.879,43.693 60.412,40.676 56.863,43.516  "
   id="polyline3836"
   style="fill:none;stroke:#267b9f;stroke-linecap:round;stroke-miterlimit:10" />
</g>
<g
   id="g3848"
   transform="matrix(2.282088,0,0,2.2721062,274.17541,21.488679)">
	<line
   class="st0"
   x1="48.384998"
   y1="52.470001"
   x2="48.384998"
   y2="29.973"
   id="line3840"
   style="fill:none;stroke:#267b9f;stroke-linecap:round;stroke-miterlimit:10" />
	<polyline
   class="st0"
   points="51.893,32.693 48.426,29.676 44.877,32.516  "
   id="polyline3842"
   style="fill:none;stroke:#267b9f;stroke-linecap:round;stroke-miterlimit:10" />
	<polyline
   class="st0"
   points="51.893,38.693 48.426,35.676 44.877,38.516  "
   id="polyline3844"
   style="fill:none;stroke:#267b9f;stroke-linecap:round;stroke-miterlimit:10" />
	<polyline
   class="st0"
   points="51.879,43.693 48.412,40.676 44.863,43.516  "
   id="polyline3846"
   style="fill:none;stroke:#267b9f;stroke-linecap:round;stroke-miterlimit:10" />
</g>
<path
   class="st0"
   d="m 299.68687,151.35091 c 0,0 3.49844,-0.83842 10.41774,1.94492 6.91701,2.78333 7.55599,-3.48087 13.10375,-3.13096 5.54775,0.3499 7.4259,3.84667 13.10374,3.84667 5.67784,0 7.0722,-3.86031 13.10375,-3.86031 6.03156,0 7.78192,3.86031 13.10375,3.86031 6.6637,0 5.56145,-3.86031 13.10375,-3.86031 6.38529,0 8.66737,3.86031 13.10375,3.86031 4.4341,0 6.71618,-3.86031 13.10376,-3.86031 6.38528,0 11.9102,3.86031 11.9102,3.86031"
   id="path3850"
   inkscape:connector-curvature="0"
   style="fill:none;stroke:#267b9f;stroke-width:2.2770915;stroke-linecap:round;stroke-miterlimit:10" />
<path
   class="st0"
   d="m 312.23152,165.00626 c 6.81431,2.78333 6.37158,-3.48087 11.83718,-3.13096 5.4656,0.3499 7.31409,3.84668 12.9052,3.84668 5.59113,0 6.96494,-3.86031 12.90522,-3.86031 5.94028,0 7.66325,3.86031 12.90521,3.86031 5.24195,0 6.61577,-3.86031 12.90521,-3.86031 6.28943,0 8.53729,3.86031 12.9052,3.86031 4.36792,0 5.41768,-3.86031 11.7094,-3.86031 6.29171,0 4.39073,1.93129 4.39073,1.93129"
   id="path3852"
   inkscape:connector-curvature="0"
   style="fill:none;stroke:#267b9f;stroke-width:2.2770915;stroke-linecap:round;stroke-miterlimit:10" />
<path
   class="st0"
   d="m 324.0687,173.23583 c 5.46332,0.34764 7.31409,3.84668 12.9052,3.84668 5.59113,0 6.96494,-3.86031 12.90522,-3.86031 5.94028,0 7.66325,3.86031 12.90521,3.86031 5.24195,0 6.61577,-3.86031 12.90521,-3.86031 6.28943,0 5.41996,1.93128 9.78787,1.93128"
   id="path3854"
   inkscape:connector-curvature="0"
   style="fill:none;stroke:#267b9f;stroke-width:2.2770915;stroke-linecap:round;stroke-miterlimit:10" />
<ellipse
   class="st0"
   cx="357.19778"
   cy="105.80196"
   id="circle3856"
   style="fill:none;stroke:#267b9f;stroke-width:2.2770915;stroke-linecap:round;stroke-miterlimit:10"
   rx="75.158279"
   ry="74.829544" />
<path
   class="st0"
   d="m 349.07354,64.204274 c 0.96989,-2.617466 7.02883,0.381714 7.02883,0.381714 0,0 0.69603,-6.450509 3.44823,-5.930197"
   id="path3858"
   inkscape:connector-curvature="0"
   style="fill:none;stroke:#267b9f;stroke-width:2.2770915;stroke-linecap:round;stroke-miterlimit:10" />
<path
   class="st0"
   d="m 348.19265,56.247359 c 0.52717,-2.133508 5.53863,-0.322639 5.53863,-0.322639 0,0 -0.0297,-5.112239 2.17026,-4.946375"
   id="path3860"
   inkscape:connector-curvature="0"
   style="fill:none;stroke:#267b9f;stroke-width:2.2770915;stroke-linecap:round;stroke-miterlimit:10" />
<path
   class="st0"
   d="m 346.43317,49.465122 c 0.61388,-1.681359 4.50712,0.220394 4.50712,0.220394 0,0 0.42218,-4.137505 2.18852,-3.812594"
   id="path3862"
   inkscape:connector-curvature="0"
   style="fill:none;stroke:#267b9f;stroke-width:2.2770915;stroke-linecap:round;stroke-miterlimit:10" />



<text
   xml:space="preserve"
   style="font-style:normal;font-variant:normal;font-weight:normal;font-stretch:normal;font-size:40px;line-height:1.25;font-family:Magneto;-inkscape-font-specification:Magneto;letter-spacing:0px;word-spacing:0px;fill:#000000;fill-opacity:1;stroke:none"
   x="48.217964"
   y="284.79007"
   id="text3881"><tspan
     sodipodi:role="line"
     id="tspan3879"
     x="48.217964"
     y="321.6846" /><tspan
     sodipodi:role="line"
     x="48.217964"
     y="371.6846"
     id="tspan3883" /></text>


<text
   xml:space="preserve"
   style="font-style:normal;font-variant:normal;font-weight:normal;font-stretch:normal;font-size:40px;line-height:1.25;font-family:Mistral;letter-spacing:0px;word-spacing:0px;fill:#000000;fill-opacity:1;stroke:none"
   x="104.21301"
   y="298.01111"
   id="text49"><tspan
     sodipodi:role="line"
     id="tspan47"
     x="104.21301"
     y="332.0863" /></text>

<text
   xml:space="preserve"
   style="font-style:normal;font-variant:normal;font-weight:normal;font-stretch:normal;font-size:78.90110016px;line-height:1.25;font-family:'Mysteries of Passion Personal U';letter-spacing:0px;word-spacing:0px;fill:#4d4c59;fill-opacity:1;stroke:none;stroke-width:1.9725275"
   x="105.68182"
   y="314.0549"
   id="text53"
   transform="scale(1.0375501,0.96380888)"><tspan
     sodipodi:role="line"
     id="tspan51"
     x="105.68182"
     y="314.0549"
     style="fill:#4d4c59;fill-opacity:1;stroke-width:1.9725275">WaterData</tspan></text>

<text
   xml:space="preserve"
   style="font-style:normal;font-variant:normal;font-weight:normal;font-stretch:normal;font-size:49.88429642px;line-height:1.25;font-family:'Malgun Gothic Semilight';-inkscape-font-specification:'Malgun Gothic Semilight, ';letter-spacing:0px;word-spacing:0px;fill:#267b9f;fill-opacity:1;stroke:none;stroke-width:1.24710739"
   x="200.54634"
   y="369.47684"
   id="text57"
   transform="scale(0.99586417,1.004153)"><tspan
     sodipodi:role="line"
     id="tspan55"
     x="200.54634"
     y="369.47684"
     style="font-style:normal;font-variant:normal;font-weight:normal;font-stretch:normal;font-family:'Malgun Gothic Semilight';-inkscape-font-specification:'Malgun Gothic Semilight, ';fill:#267b9f;fill-opacity:1;stroke-width:1.24710739">NATURE FIRST</tspan></text>

</svg>